<svg t="1682411092021" class="icon" viewBox="0 0 1024 1024" version="1.1" xmlns="http://www.w3.org/2000/svg" p-id="20423" width="200" height="200"><path d="M790.7 366.2c84.8-13.9 149.8-87 149.8-175.7C940.6 92.1 860.5 12 762 12S583.4 92.1 583.4 190.6c0 83.2 57.4 152.7 134.6 172.4-40.7 176.6-241.7 320-491.7 361V365.5c81.4-16.6 142.9-88.7 142.9-175C369.1 92.1 289 12 190.6 12S12 92.1 12 190.6c0 86.2 61.4 158.4 142.9 175V1012h71.4V796.4c3.6-0.6 7.2-1.2 10.7-1.8 4.4-0.7 8.8-1.5 13.1-2.3 0.6-0.1 1.2-0.2 1.7-0.3 249.7-45.8 496.8-198.5 538.9-425.8zM654.9 190.6c0-59.1 48.1-107.1 107.1-107.1s107.1 48.1 107.1 107.1-48 107.1-107.1 107.1-107.1-48-107.1-107.1z m-571.5 0c0-59.1 48.1-107.1 107.1-107.1s107.1 48.1 107.1 107.1-48.1 107.1-107.1 107.1-107.1-48-107.1-107.1zM1012 726.3H869.1V583.4h-71.4v142.9H654.9v71.4h142.8v142.9h71.4V797.7H1012z" p-id="20424" fill="#a9a9a9"></path></svg>